<mxfile host="65bd71144e">
    <diagram id="E0Nnmv_8OouhQp7Wp6q_" name="Page-1">
        <mxGraphModel dx="986" dy="547" grid="1" gridSize="10" guides="1" tooltips="1" connect="1" arrows="1" fold="1" page="1" pageScale="1" pageWidth="827" pageHeight="1169" math="0" shadow="0">
            <root>
                <mxCell id="0"/>
                <mxCell id="1" parent="0"/>
                <mxCell id="12" value="Bestellung in Verarbeitung" style="html=1;align=center;verticalAlign=top;rounded=1;absoluteArcSize=1;arcSize=10;dashed=0;" vertex="1" parent="1">
                    <mxGeometry x="200" y="200" width="400" height="540" as="geometry"/>
                </mxCell>
                <mxCell id="2" value="" style="ellipse;fillColor=strokeColor;" parent="1" vertex="1">
                    <mxGeometry x="385.69" y="30" width="30" height="30" as="geometry"/>
                </mxCell>
                <mxCell id="3" value="Bestellsystem bereit" style="html=1;align=center;verticalAlign=top;rounded=1;absoluteArcSize=1;arcSize=10;dashed=0;" parent="1" vertex="1">
                    <mxGeometry x="330.69" y="113" width="140" height="40" as="geometry"/>
                </mxCell>
                <mxCell id="8" value="Spedition" style="html=1;align=center;verticalAlign=top;rounded=1;absoluteArcSize=1;arcSize=10;dashed=0;" parent="1" vertex="1">
                    <mxGeometry x="330.69" y="527" width="140" height="40" as="geometry"/>
                </mxCell>
                <mxCell id="9" value="Transport" style="html=1;align=center;verticalAlign=top;rounded=1;absoluteArcSize=1;arcSize=10;dashed=0;" parent="1" vertex="1">
                    <mxGeometry x="330.69" y="808" width="140" height="40" as="geometry"/>
                </mxCell>
                <mxCell id="10" value="" style="ellipse;html=1;shape=endState;fillColor=strokeColor;" parent="1" vertex="1">
                    <mxGeometry x="385.69" y="912" width="30" height="30" as="geometry"/>
                </mxCell>
                <mxCell id="VaOXHuJacDNkqNsKDK7j-15" value="Bereitstellung für die Verpackung" style="endArrow=classic;html=1;rounded=0;entryX=0.5;entryY=0;entryDx=0;entryDy=0;exitX=1.067;exitY=0.499;exitDx=0;exitDy=0;exitPerimeter=0;" parent="1" source="7" target="8" edge="1">
                    <mxGeometry x="-0.0586" y="89" width="50" height="50" relative="1" as="geometry">
                        <mxPoint x="540" y="460" as="sourcePoint"/>
                        <mxPoint x="410" y="340" as="targetPoint"/>
                        <mxPoint as="offset"/>
                    </mxGeometry>
                </mxCell>
                <mxCell id="VaOXHuJacDNkqNsKDK7j-19" value="" style="group" parent="1" vertex="1" connectable="0">
                    <mxGeometry x="239" y="326" width="321.38" height="130" as="geometry"/>
                </mxCell>
                <mxCell id="6" value="" style="html=1;points=[];perimeter=orthogonalPerimeter;fillColor=strokeColor;rotation=90;" parent="VaOXHuJacDNkqNsKDK7j-19" vertex="1">
                    <mxGeometry x="157.19" y="-157.19" width="5" height="319.38" as="geometry"/>
                </mxCell>
                <mxCell id="7" value="" style="html=1;points=[];perimeter=orthogonalPerimeter;fillColor=strokeColor;rotation=90;" parent="VaOXHuJacDNkqNsKDK7j-19" vertex="1">
                    <mxGeometry x="159.19" y="-32.19" width="5" height="319.38" as="geometry"/>
                </mxCell>
                <mxCell id="11" value="" style="group" parent="VaOXHuJacDNkqNsKDK7j-19" vertex="1" connectable="0">
                    <mxGeometry x="1" y="46.5" width="319" height="40" as="geometry"/>
                </mxCell>
                <mxCell id="4" value="Bereitstellung&lt;br&gt;der Lieferung" style="html=1;align=center;verticalAlign=top;rounded=1;absoluteArcSize=1;arcSize=10;dashed=0;" parent="11" vertex="1">
                    <mxGeometry width="140" height="40" as="geometry"/>
                </mxCell>
                <mxCell id="5" value="Erstellung der Rechnung" style="html=1;align=center;verticalAlign=top;rounded=1;absoluteArcSize=1;arcSize=10;dashed=0;" parent="11" vertex="1">
                    <mxGeometry x="179" width="140" height="40" as="geometry"/>
                </mxCell>
                <mxCell id="VaOXHuJacDNkqNsKDK7j-13" value="" style="endArrow=classic;html=1;rounded=0;exitX=1.1;exitY=0.776;exitDx=0;exitDy=0;exitPerimeter=0;entryX=0.5;entryY=0;entryDx=0;entryDy=0;" parent="VaOXHuJacDNkqNsKDK7j-19" source="6" target="4" edge="1">
                    <mxGeometry width="50" height="50" relative="1" as="geometry">
                        <mxPoint x="141" y="116.5" as="sourcePoint"/>
                        <mxPoint x="191" y="66.5" as="targetPoint"/>
                    </mxGeometry>
                </mxCell>
                <mxCell id="VaOXHuJacDNkqNsKDK7j-14" value="" style="endArrow=classic;html=1;rounded=0;entryX=0.5;entryY=0;entryDx=0;entryDy=0;exitX=1.3;exitY=0.217;exitDx=0;exitDy=0;exitPerimeter=0;" parent="VaOXHuJacDNkqNsKDK7j-19" source="6" target="5" edge="1">
                    <mxGeometry width="50" height="50" relative="1" as="geometry">
                        <mxPoint x="141" y="116.5" as="sourcePoint"/>
                        <mxPoint x="191" y="66.5" as="targetPoint"/>
                    </mxGeometry>
                </mxCell>
                <mxCell id="VaOXHuJacDNkqNsKDK7j-16" value="" style="endArrow=classic;html=1;rounded=0;exitX=0.5;exitY=1;exitDx=0;exitDy=0;entryX=-0.633;entryY=0.786;entryDx=0;entryDy=0;entryPerimeter=0;" parent="VaOXHuJacDNkqNsKDK7j-19" source="4" target="7" edge="1">
                    <mxGeometry width="50" height="50" relative="1" as="geometry">
                        <mxPoint x="141" y="116.5" as="sourcePoint"/>
                        <mxPoint x="191" y="66.5" as="targetPoint"/>
                    </mxGeometry>
                </mxCell>
                <mxCell id="VaOXHuJacDNkqNsKDK7j-17" value="" style="endArrow=classic;html=1;rounded=0;exitX=0.5;exitY=1;exitDx=0;exitDy=0;entryX=-0.687;entryY=0.224;entryDx=0;entryDy=0;entryPerimeter=0;" parent="VaOXHuJacDNkqNsKDK7j-19" source="5" target="7" edge="1">
                    <mxGeometry width="50" height="50" relative="1" as="geometry">
                        <mxPoint x="141" y="116.5" as="sourcePoint"/>
                        <mxPoint x="251" y="116.5" as="targetPoint"/>
                    </mxGeometry>
                </mxCell>
                <mxCell id="VaOXHuJacDNkqNsKDK7j-20" value="" style="endArrow=classic;html=1;rounded=0;exitX=0.5;exitY=1;exitDx=0;exitDy=0;entryX=0.5;entryY=0;entryDx=0;entryDy=0;" parent="1" source="2" target="3" edge="1">
                    <mxGeometry width="50" height="50" relative="1" as="geometry">
                        <mxPoint x="600" y="380" as="sourcePoint"/>
                        <mxPoint x="650" y="330" as="targetPoint"/>
                    </mxGeometry>
                </mxCell>
                <mxCell id="VaOXHuJacDNkqNsKDK7j-21" value="Bestellungseingang" style="endArrow=classic;html=1;rounded=0;exitX=0.5;exitY=1;exitDx=0;exitDy=0;entryX=0.5;entryY=0;entryDx=0;entryDy=0;" parent="1" source="3" target="12" edge="1">
                    <mxGeometry x="-0.3138" y="60" width="50" height="50" relative="1" as="geometry">
                        <mxPoint x="600" y="380" as="sourcePoint"/>
                        <mxPoint x="600" y="170" as="targetPoint"/>
                        <mxPoint as="offset"/>
                    </mxGeometry>
                </mxCell>
                <mxCell id="VaOXHuJacDNkqNsKDK7j-23" value="Auslieferung an den Kunden" style="endArrow=classic;html=1;rounded=0;exitX=0.5;exitY=1;exitDx=0;exitDy=0;entryX=0.5;entryY=0;entryDx=0;entryDy=0;" parent="1" source="9" target="10" edge="1">
                    <mxGeometry y="79" width="50" height="50" relative="1" as="geometry">
                        <mxPoint x="600" y="760" as="sourcePoint"/>
                        <mxPoint x="550" y="810" as="targetPoint"/>
                        <mxPoint as="offset"/>
                    </mxGeometry>
                </mxCell>
                <mxCell id="13" value="" style="ellipse;fillColor=strokeColor;" vertex="1" parent="1">
                    <mxGeometry x="385.69" y="240" width="30" height="30" as="geometry"/>
                </mxCell>
                <mxCell id="16" value="Freigabe der Bestellung" style="endArrow=classic;html=1;exitX=0.5;exitY=1;exitDx=0;exitDy=0;entryX=0.067;entryY=0.494;entryDx=0;entryDy=0;entryPerimeter=0;" edge="1" parent="1" source="13" target="6">
                    <mxGeometry x="-0.2936" y="69" width="50" height="50" relative="1" as="geometry">
                        <mxPoint x="480" y="310" as="sourcePoint"/>
                        <mxPoint x="530" y="260" as="targetPoint"/>
                        <mxPoint as="offset"/>
                    </mxGeometry>
                </mxCell>
                <mxCell id="17" value="" style="ellipse;html=1;shape=endState;fillColor=strokeColor;" vertex="1" parent="1">
                    <mxGeometry x="384.69" y="650" width="30" height="30" as="geometry"/>
                </mxCell>
                <mxCell id="18" value="" style="endArrow=classic;html=1;exitX=0.5;exitY=1;exitDx=0;exitDy=0;entryX=0.5;entryY=0;entryDx=0;entryDy=0;" edge="1" parent="1" source="8" target="17">
                    <mxGeometry width="50" height="50" relative="1" as="geometry">
                        <mxPoint x="480" y="840" as="sourcePoint"/>
                        <mxPoint x="530" y="790" as="targetPoint"/>
                    </mxGeometry>
                </mxCell>
                <mxCell id="19" value="Übergabe an den Kurrier" style="endArrow=classic;html=1;exitX=0.5;exitY=1;exitDx=0;exitDy=0;entryX=0.5;entryY=0;entryDx=0;entryDy=0;" edge="1" parent="1" source="12" target="9">
                    <mxGeometry x="-0.3909" y="70" width="50" height="50" relative="1" as="geometry">
                        <mxPoint x="480" y="710" as="sourcePoint"/>
                        <mxPoint x="530" y="660" as="targetPoint"/>
                        <mxPoint as="offset"/>
                    </mxGeometry>
                </mxCell>
            </root>
        </mxGraphModel>
    </diagram>
</mxfile>